<svg preserveAspectRatio="none" width="100%" height="100%" overflow="visible" style="display: block;" viewBox="0 0 24 24" fill="none" xmlns="http://www.w3.org/2000/svg">
<g id="Chart icon">
<path id="Vector" d="M3 13.9999L3.5 14.0699L8.07 9.49994C7.89 8.84994 8.06 8.10994 8.59 7.58994C9.37 6.79994 10.63 6.79994 11.41 7.58994C11.94 8.10994 12.11 8.84994 11.93 9.49994L14.5 12.0699L15 11.9999C15.18 11.9999 15.35 11.9999 15.5 12.0699L19.07 8.49994C19 8.34994 19 8.17994 19 7.99994C19 7.46951 19.2107 6.9608 19.5858 6.58573C19.9609 6.21065 20.4696 5.99994 21 5.99994C21.5304 5.99994 22.0391 6.21065 22.4142 6.58573C22.7893 6.9608 23 7.46951 23 7.99994C23 8.53037 22.7893 9.03908 22.4142 9.41415C22.0391 9.78922 21.5304 9.99994 21 9.99994C20.82 9.99994 20.65 9.99994 20.5 9.92994L16.93 13.4999C17 13.6499 17 13.8199 17 13.9999C17 14.5304 16.7893 15.0391 16.4142 15.4142C16.0391 15.7892 15.5304 15.9999 15 15.9999C14.4696 15.9999 13.9609 15.7892 13.5858 15.4142C13.2107 15.0391 13 14.5304 13 13.9999L13.07 13.4999L10.5 10.9299C10.18 10.9999 9.82 10.9999 9.5 10.9299L4.93 15.4999L5 15.9999C5 16.5304 4.78929 17.0391 4.41421 17.4142C4.03914 17.7892 3.53043 17.9999 3 17.9999C2.46957 17.9999 1.96086 17.7892 1.58579 17.4142C1.21071 17.0391 1 16.5304 1 15.9999C1 15.4695 1.21071 14.9608 1.58579 14.5857C1.96086 14.2107 2.46957 13.9999 3 13.9999Z" fill="var(--fill-0, black)"/>
</g>
</svg>
