<svg preserveAspectRatio="none" width="100%" height="100%" overflow="visible" style="display: block;" viewBox="0 0 24 24" fill="none" xmlns="http://www.w3.org/2000/svg">
<g id="Account icon">
<path id="Vector" d="M9 5.00006C10.0609 5.00006 11.0783 5.42149 11.8284 6.17163C12.5786 6.92178 13 7.9392 13 9.00006C13 10.0609 12.5786 11.0783 11.8284 11.8285C11.0783 12.5786 10.0609 13.0001 9 13.0001C7.93913 13.0001 6.92172 12.5786 6.17157 11.8285C5.42143 11.0783 5 10.0609 5 9.00006C5 7.9392 5.42143 6.92178 6.17157 6.17163C6.92172 5.42149 7.93913 5.00006 9 5.00006ZM9 15.0001C11.67 15.0001 17 16.3401 17 19.0001V21.0001H1V19.0001C1 16.3401 6.33 15.0001 9 15.0001ZM16.76 5.36006C18.78 7.56006 18.78 10.6101 16.76 12.6301L15.08 10.9401C15.92 9.76006 15.92 8.23006 15.08 7.05006L16.76 5.36006ZM20.07 2.00006C24 6.05006 23.97 12.1101 20.07 16.0001L18.44 14.3701C21.21 11.1901 21.21 6.65006 18.44 3.63006L20.07 2.00006Z" fill="var(--fill-0, black)"/>
</g>
</svg>
